<mxfile host="app.diagrams.net" agent="Mozilla/5.0 (Windows NT 10.0; Win64; x64) AppleWebKit/537.36 (KHTML, like Gecko) Chrome/136.0.0.0 Safari/537.36" version="27.1.3">
  <diagram name="Page-1" id="5wTvq_2eRhftYejyZUud">
    <mxGraphModel dx="1226" dy="1060" grid="0" gridSize="10" guides="1" tooltips="1" connect="1" arrows="1" fold="1" page="0" pageScale="1" pageWidth="850" pageHeight="1100" math="0" shadow="0">
      <root>
        <mxCell id="0" />
        <mxCell id="1" parent="0" />
        <mxCell id="MLd2HIcP6WJ21AjdGupA-10" value="User" style="shape=umlActor;verticalLabelPosition=bottom;verticalAlign=top;html=1;outlineConnect=0;" parent="1" vertex="1">
          <mxGeometry x="20" y="250" width="30" height="60" as="geometry" />
        </mxCell>
        <mxCell id="MLd2HIcP6WJ21AjdGupA-20" value="" style="html=1;whiteSpace=wrap;movable=1;resizable=1;rotatable=1;deletable=1;editable=1;locked=0;connectable=1;" parent="1" vertex="1">
          <mxGeometry x="170" y="-15" width="735" height="590" as="geometry" />
        </mxCell>
        <mxCell id="MLd2HIcP6WJ21AjdGupA-22" value="Lọc theo khoảng thời gian&amp;nbsp;" style="ellipse;whiteSpace=wrap;html=1;" parent="1" vertex="1">
          <mxGeometry x="540" y="10" width="120" height="80" as="geometry" />
        </mxCell>
        <mxCell id="MLd2HIcP6WJ21AjdGupA-23" value="Giám sát trạng thái&amp;nbsp; thiết bị" style="ellipse;whiteSpace=wrap;html=1;" parent="1" vertex="1">
          <mxGeometry x="330" y="180" width="120" height="80" as="geometry" />
        </mxCell>
        <mxCell id="MLd2HIcP6WJ21AjdGupA-24" value="Thống kê dạng biểu đồ" style="ellipse;whiteSpace=wrap;html=1;" parent="1" vertex="1">
          <mxGeometry x="730" y="120" width="120" height="80" as="geometry" />
        </mxCell>
        <mxCell id="MLd2HIcP6WJ21AjdGupA-25" value="Thống kê trạng thái 1 thuộc tính&amp;nbsp;" style="ellipse;whiteSpace=wrap;html=1;" parent="1" vertex="1">
          <mxGeometry x="500" y="250" width="120" height="80" as="geometry" />
        </mxCell>
        <mxCell id="MLd2HIcP6WJ21AjdGupA-26" value="Thống kê dạng bảng&amp;nbsp;" style="ellipse;whiteSpace=wrap;html=1;" parent="1" vertex="1">
          <mxGeometry x="700" y="280" width="120" height="80" as="geometry" />
        </mxCell>
        <mxCell id="MLd2HIcP6WJ21AjdGupA-27" value="Chỉnh sửa thông tin thiết bị" style="ellipse;whiteSpace=wrap;html=1;" parent="1" vertex="1">
          <mxGeometry x="212" y="489" width="120" height="80" as="geometry" />
        </mxCell>
        <mxCell id="MLd2HIcP6WJ21AjdGupA-28" value="Thêm kỹ sư hỗ trợ&amp;nbsp;" style="ellipse;whiteSpace=wrap;html=1;" parent="1" vertex="1">
          <mxGeometry x="406" y="486" width="120" height="80" as="geometry" />
        </mxCell>
        <mxCell id="MLd2HIcP6WJ21AjdGupA-35" value="" style="endArrow=none;html=1;rounded=0;" parent="1" edge="1">
          <mxGeometry width="50" height="50" relative="1" as="geometry">
            <mxPoint x="80" y="260" as="sourcePoint" />
            <mxPoint x="330" y="230" as="targetPoint" />
          </mxGeometry>
        </mxCell>
        <mxCell id="MLd2HIcP6WJ21AjdGupA-37" value="" style="endArrow=none;html=1;rounded=0;exitX=-0.017;exitY=0.65;exitDx=0;exitDy=0;exitPerimeter=0;" parent="1" source="MLd2HIcP6WJ21AjdGupA-25" edge="1">
          <mxGeometry width="50" height="50" relative="1" as="geometry">
            <mxPoint x="250" y="330" as="sourcePoint" />
            <mxPoint x="80" y="300" as="targetPoint" />
          </mxGeometry>
        </mxCell>
        <mxCell id="MLd2HIcP6WJ21AjdGupA-38" value="" style="endArrow=block;endSize=16;endFill=0;html=1;rounded=0;entryX=0.983;entryY=0.325;entryDx=0;entryDy=0;entryPerimeter=0;exitX=0.075;exitY=0.7;exitDx=0;exitDy=0;exitPerimeter=0;" parent="1" source="MLd2HIcP6WJ21AjdGupA-24" target="MLd2HIcP6WJ21AjdGupA-25" edge="1">
          <mxGeometry width="160" relative="1" as="geometry">
            <mxPoint x="690" y="195" as="sourcePoint" />
            <mxPoint x="588.96" y="365" as="targetPoint" />
          </mxGeometry>
        </mxCell>
        <mxCell id="MLd2HIcP6WJ21AjdGupA-39" value="" style="endArrow=block;endSize=16;endFill=0;html=1;rounded=0;entryX=0.925;entryY=0.775;entryDx=0;entryDy=0;entryPerimeter=0;exitX=0.075;exitY=0.788;exitDx=0;exitDy=0;exitPerimeter=0;" parent="1" source="MLd2HIcP6WJ21AjdGupA-26" target="MLd2HIcP6WJ21AjdGupA-25" edge="1">
          <mxGeometry width="160" relative="1" as="geometry">
            <mxPoint x="540" y="390" as="sourcePoint" />
            <mxPoint x="700" y="390" as="targetPoint" />
          </mxGeometry>
        </mxCell>
        <mxCell id="MLd2HIcP6WJ21AjdGupA-42" value="" style="endArrow=none;html=1;rounded=0;entryX=0;entryY=0.5;entryDx=0;entryDy=0;" parent="1" target="MLd2HIcP6WJ21AjdGupA-27" edge="1">
          <mxGeometry width="50" height="50" relative="1" as="geometry">
            <mxPoint x="80" y="320" as="sourcePoint" />
            <mxPoint x="260" y="360" as="targetPoint" />
          </mxGeometry>
        </mxCell>
        <mxCell id="MLd2HIcP6WJ21AjdGupA-43" value="&amp;lt;extend&amp;gt;" style="endArrow=open;endSize=12;dashed=1;html=1;rounded=0;exitX=0.258;exitY=0.088;exitDx=0;exitDy=0;exitPerimeter=0;entryX=0.975;entryY=0.713;entryDx=0;entryDy=0;entryPerimeter=0;" parent="1" target="MLd2HIcP6WJ21AjdGupA-23" edge="1">
          <mxGeometry width="160" relative="1" as="geometry">
            <mxPoint x="510.00000000000006" y="268.52" as="sourcePoint" />
            <mxPoint x="589.04" y="171.48" as="targetPoint" />
          </mxGeometry>
        </mxCell>
        <mxCell id="MLd2HIcP6WJ21AjdGupA-44" value="&amp;lt;include&amp;gt;" style="endArrow=open;endSize=12;dashed=1;html=1;rounded=0;entryX=0.433;entryY=0.963;entryDx=0;entryDy=0;entryPerimeter=0;" parent="1" source="MLd2HIcP6WJ21AjdGupA-25" target="MLd2HIcP6WJ21AjdGupA-22" edge="1">
          <mxGeometry width="160" relative="1" as="geometry">
            <mxPoint x="530" y="190" as="sourcePoint" />
            <mxPoint x="690" y="190" as="targetPoint" />
          </mxGeometry>
        </mxCell>
        <mxCell id="MLd2HIcP6WJ21AjdGupA-49" value="&amp;lt;extend&amp;gt;" style="endArrow=open;endSize=12;dashed=1;html=1;rounded=0;exitX=0;exitY=0.5;exitDx=0;exitDy=0;entryX=1;entryY=0.5;entryDx=0;entryDy=0;" parent="1" source="MLd2HIcP6WJ21AjdGupA-28" target="MLd2HIcP6WJ21AjdGupA-27" edge="1">
          <mxGeometry width="160" relative="1" as="geometry">
            <mxPoint x="370" y="450" as="sourcePoint" />
            <mxPoint x="530" y="450" as="targetPoint" />
          </mxGeometry>
        </mxCell>
        <mxCell id="MLd2HIcP6WJ21AjdGupA-51" value="" style="endArrow=none;html=1;rounded=0;entryX=0.075;entryY=0.788;entryDx=0;entryDy=0;entryPerimeter=0;" parent="1" target="MLd2HIcP6WJ21AjdGupA-22" edge="1">
          <mxGeometry width="50" height="50" relative="1" as="geometry">
            <mxPoint x="80" y="230" as="sourcePoint" />
            <mxPoint x="500" y="70" as="targetPoint" />
          </mxGeometry>
        </mxCell>
        <mxCell id="MLd2HIcP6WJ21AjdGupA-53" value="Quản lý thiết bị" style="text;html=1;align=center;verticalAlign=middle;resizable=0;points=[];autosize=1;strokeColor=none;fillColor=none;fontSize=34;" parent="1" vertex="1">
          <mxGeometry x="365" y="-82" width="250" height="50" as="geometry" />
        </mxCell>
        <mxCell id="vXXz84ZG_KnzZF2bRZkx-3" value="Thêm thiết bị" style="ellipse;whiteSpace=wrap;html=1;" parent="1" vertex="1">
          <mxGeometry x="301" y="312" width="120" height="80" as="geometry" />
        </mxCell>
        <mxCell id="vXXz84ZG_KnzZF2bRZkx-5" value="Xóa thiết bị&amp;nbsp;" style="ellipse;whiteSpace=wrap;html=1;" parent="1" vertex="1">
          <mxGeometry x="301" y="401" width="120" height="80" as="geometry" />
        </mxCell>
        <mxCell id="w_HMCl4WLqSo3EZiLewO-1" style="rounded=0;orthogonalLoop=1;jettySize=auto;html=1;entryX=0;entryY=0.5;entryDx=0;entryDy=0;endArrow=none;startFill=0;" edge="1" parent="1" target="vXXz84ZG_KnzZF2bRZkx-3">
          <mxGeometry relative="1" as="geometry">
            <mxPoint x="85" y="314" as="sourcePoint" />
          </mxGeometry>
        </mxCell>
        <mxCell id="w_HMCl4WLqSo3EZiLewO-2" style="rounded=0;orthogonalLoop=1;jettySize=auto;html=1;entryX=0;entryY=0.5;entryDx=0;entryDy=0;endArrow=none;startFill=0;" edge="1" parent="1" target="vXXz84ZG_KnzZF2bRZkx-5">
          <mxGeometry relative="1" as="geometry">
            <mxPoint x="84" y="318" as="sourcePoint" />
          </mxGeometry>
        </mxCell>
      </root>
    </mxGraphModel>
  </diagram>
</mxfile>
